# xmcd
#
# Track frame offsets:
# 182
# 30290
# 51592
# 82730
# 107977
# 125187
# 157440
#
# Disc length: 2272 seconds
#
#
# Revision: 0
# Processed by: cddbd v1.5.1PL0 Copyright (c) Steve Scherf et al.
# Submitted via: FreeRIP 2.90 
#
DISCID=5e08de07
DTITLE=Derek and The Dominos - Layla and other assorted Love Songs disc 2
DYEAR=1900
DGENRE=Blues
TTITLE0=Tell the thruth
TTITLE1=Why does love got to be so sad?
TTITLE2=Have you ever loved a woman?
TTITLE3=Little wing
TTITLE4=It's too late
TTITLE5=Layla
TTITLE6=Thorn tree in the garden
EXTD=
EXTT0=
EXTT1=
EXTT2=
EXTT3=
EXTT4=
EXTT5=
EXTT6=
PLAYORDER=
